<svg width="32" height="36" viewBox="0 0 32 36" fill="none" xmlns="http://www.w3.org/2000/svg">
<path d="M21.2845 19.8303C24.2258 18.0474 26.1918 14.8268 26.1918 11.1511C26.1918 5.54446 21.6274 1 16.0038 1C10.3726 1 5.80823 5.54446 5.80823 11.1511C5.80823 14.8268 7.77419 18.0398 10.7155 19.8303C5.04242 21.9584 1 27.4246 1 33.8089C1 34.4651 1.54102 35 2.19634 35C2.86309 35 3.39268 34.4651 3.39268 33.8089C3.39268 27.106 8.6924 21.6132 15.3447 21.2718H15.3561C15.5733 21.2604 15.7866 21.2528 16.0038 21.2528C16.221 21.2528 16.4343 21.2604 16.6515 21.2718H16.6629C23.3076 21.6132 28.6073 27.106 28.6073 33.8089C28.6073 34.4651 29.1407 35 29.8037 35C30.4628 35 31 34.4651 31 33.8089C31 27.4246 26.9576 21.9622 21.2845 19.8303ZM16 18.9123C15.7981 18.9123 15.5923 18.9047 15.3904 18.882C11.3708 18.5785 8.20091 15.2251 8.20091 11.1511C8.20091 6.86835 11.6985 3.38603 16 3.38603C20.2939 3.38603 23.7953 6.86835 23.7953 11.1511C23.7953 15.2251 20.6253 18.5747 16.6134 18.882C16.4077 18.9085 16.2019 18.9123 16 18.9123Z" fill="white" stroke="white" stroke-width="2"/>
</svg>
